# xmcd
#
# Track frame offsets:
#	150
#	9121
#	24461
#	44481
#	53386
#	67169
#	87129
#	100893
#	124768
#	146633
#	159928
#
# Disc length: 2339 seconds
#
# Revision: 0
# Processed by: cddbd v1.5.2PL0 Copyright (c) Steve Scherf et al.
# Submitted via: audiograbber 1.83.01
#
DISCID=8309210b
DTITLE=Treves Blues Band - 3
DYEAR=1900
DGENRE=Blues
TTITLE0=F.T. Boogie
TTITLE1=Dust my blues
TTITLE2=Black night
TTITLE3=Gibson creeck shuffle
TTITLE4=Girls story
TTITLE5=Train time
TTITLE6=Tv blues
TTITLE7=Stormy monday
TTITLE8=Blues come around
TTITLE9=Livin in the blues
TTITLE10=Macedonia
EXTD=
EXTT0=
EXTT1=
EXTT2=
EXTT3=
EXTT4=
EXTT5=
EXTT6=
EXTT7=
EXTT8=
EXTT9=
EXTT10=
PLAYORDER=
